<svg width="41" height="18" fill="none" xmlns="http://www.w3.org/2000/svg"><path d="M13.882 10.28v3.504h-1.68V17H7.546l-.024-3.216H.682v-3.096L5.17.176l4.056 1.44-3.672 8.664H7.57l.552-3.552h4.08v3.552h1.68zM20.505.296c2.112 0 3.736.744 4.872 2.232C26.513 4 27.081 6.112 27.081 8.864c0 2.752-.568 4.88-1.704 6.384-1.136 1.488-2.76 2.232-4.872 2.232s-3.736-.744-4.872-2.232c-1.136-1.504-1.704-3.632-1.704-6.384 0-2.752.568-4.864 1.704-6.336C16.77 1.04 18.393.296 20.505.296zm0 3.432c-.448 0-.8.152-1.056.456-.24.288-.416.8-.528 1.536-.096.736-.144 1.784-.144 3.144 0 1.376.048 2.432.144 3.168.112.72.288 1.232.528 1.536.256.304.608.456 1.056.456.464 0 .816-.136 1.056-.408.24-.288.408-.8.504-1.536.112-.736.168-1.808.168-3.216 0-1.424-.056-2.496-.168-3.216-.096-.736-.264-1.24-.504-1.512s-.592-.408-1.056-.408zM40.44 10.28v3.504h-1.68V17h-4.656l-.024-3.216h-6.84v-3.096L31.727.176l4.056 1.44-3.672 8.664h2.016l.552-3.552h4.08v3.552h1.68z" fill="#E0E0E0"/></svg>