<svg width="104" height="104" viewBox="0 0 104 104" fill="none" xmlns="http://www.w3.org/2000/svg">
<rect width="104" height="104" rx="52" fill="#C4E58C"/>
<path fill-rule="evenodd" clip-rule="evenodd" d="M63.3304 60.4832C68.5671 56.8767 72 50.8392 72 44C72 32.9543 63.0457 24 52 24C40.9543 24 32 32.9543 32 44C32 50.8196 35.4132 56.842 40.6245 60.4521C26.3169 64.2215 16 74.9069 16 87.5C16 92.436 21.2652 94.9564 25.5419 97.0037C26.6252 97.5223 27.6452 98.0106 28.5 98.5C35.0318 102.24 39.932 104 52 104C62.7522 104 69.9035 100.996 76.5 98C76.8338 97.8484 77.1765 97.6947 77.5253 97.5383C82.4012 95.3522 88.4666 92.6328 88 87.5C86.8624 74.9861 77.2692 64.2891 63.3304 60.4832Z" fill="white"/>
</svg>
