<svg width="100" height="100" fill="none" xmlns="http://www.w3.org/2000/svg"><rect width="100" height="100" rx="8" fill="#AFFA00"/><path stroke="#0C1200" stroke-width="2" d="M27 73h46V27H27z"/><rect x="18" y="18" width="64" height="22" rx="6" fill="#0C1200"/><circle cx="70" cy="29" r="5" fill="#AFFA00"/><rect x="25" y="24" width="32" height="4" rx="1" fill="#AFFA00"/><rect x="25" y="30" width="32" height="4" rx="1" fill="#AFFA00"/><rect x="18" y="60" width="64" height="22" rx="6" fill="#0C1200"/><circle cx="70" cy="71" r="5" fill="#AFFA00"/><rect x="25" y="66" width="32" height="4" rx="1" fill="#AFFA00"/><rect x="25" y="72" width="32" height="4" rx="1" fill="#AFFA00"/><rect x="19.5" y="39.5" width="61" height="21" rx="4.5" fill="#AFFA00" stroke="#0C1200" stroke-width="3"/><circle cx="70" cy="50" r="5" fill="#0C1200"/><rect x="25" y="45" width="32" height="4" rx="1" fill="#0C1200"/><rect x="25" y="51" width="32" height="4" rx="1" fill="#0C1200"/></svg>