<svg width="100" height="100" fill="none" xmlns="http://www.w3.org/2000/svg"><rect width="100" height="100" rx="12" fill="#AFFA00"/><path d="M76 52H24a4 4 0 0 0-4 4v22a4 4 0 0 0 4 4h60.838a1.162 1.162 0 0 0 .367-2.265L84.8 79.6a7.02 7.02 0 0 1-4.8-6.66V56a4 4 0 0 0-4-4z" fill="#0C1200"/><circle cx="36" cy="67" r="5" fill="#AFFA00"/><circle cx="50" cy="67" r="5" fill="#AFFA00"/><circle cx="64" cy="67" r="5" fill="#AFFA00"/><path d="M24 18h52a4 4 0 0 1 4 4v22a4 4 0 0 1-4 4H15.162a1.162 1.162 0 0 1-.367-2.265l.405-.135a7.02 7.02 0 0 0 4.8-6.66V22a4 4 0 0 1 4-4z" fill="#0C1200"/><rect x="27" y="26" width="46" height="5" rx="1" fill="#AFFA00"/><rect x="27" y="35" width="28" height="5" rx="1" fill="#AFFA00"/></svg>