<svg width="20" height="20" viewBox="0 0 20 20" fill="none" xmlns="http://www.w3.org/2000/svg">
<g id="contact icons">
<path id="Vector" d="M18.5068 2.04607C18.4099 1.96245 18.2921 1.90684 18.166 1.88523C18.0399 1.86361 17.9103 1.87682 17.7911 1.92342L1.95831 8.11951C1.73393 8.20676 1.54396 8.36455 1.41701 8.56911C1.29005 8.77367 1.23299 9.01394 1.2544 9.25374C1.27582 9.49354 1.37456 9.71989 1.53575 9.89872C1.69694 10.0776 1.91186 10.1992 2.14816 10.2453L6.2505 11.0508V15.625C6.24969 15.8741 6.32374 16.1178 6.46303 16.3244C6.60233 16.5309 6.80046 16.6909 7.03175 16.7836C7.26268 16.8779 7.51664 16.9005 7.76061 16.8485C8.00458 16.7966 8.22727 16.6724 8.39972 16.4922L10.3778 14.4406L13.5161 17.1875C13.7425 17.3883 14.0346 17.4995 14.3372 17.5C14.4698 17.4999 14.6016 17.479 14.7278 17.4383C14.9341 17.3728 15.1195 17.2545 15.2658 17.0951C15.412 16.9357 15.514 16.7407 15.5614 16.5297L18.7325 2.73435C18.7609 2.60994 18.7549 2.48015 18.7151 2.3589C18.6753 2.23765 18.6033 2.12951 18.5068 2.04607ZM13.7302 4.85857L6.73097 9.87107L2.85597 9.11092L13.7302 4.85857ZM7.5005 15.625V11.9156L9.43722 13.614L7.5005 15.625ZM14.3388 16.25L7.87941 10.5859L17.1763 3.92263L14.3388 16.25Z" fill="#0C1200"/>
</g>
</svg>
