<svg width="20" height="20" viewBox="0 0 20 20" fill="none" xmlns="http://www.w3.org/2000/svg">
<g id="contact icons">
<path id="Vector" fill-rule="evenodd" clip-rule="evenodd" d="M4.77817 1.70246C5.79234 0.694129 7.46234 0.873296 8.31151 2.0083L9.36317 3.41163C10.0548 4.33496 9.99317 5.62496 9.17234 6.4408L8.97401 6.63913C8.95161 6.7224 8.94933 6.8098 8.96734 6.89413C9.01984 7.23413 9.30401 7.95413 10.494 9.13746C11.684 10.3208 12.409 10.6041 12.754 10.6575C12.8409 10.6759 12.9309 10.6734 13.0165 10.65L13.3565 10.3116C14.0865 9.58663 15.2065 9.4508 16.1098 9.94163L17.7015 10.8083C19.0657 11.5483 19.4098 13.4016 18.2932 14.5125L17.109 15.6891C16.7357 16.06 16.234 16.3691 15.6223 16.4266C14.114 16.5675 10.5998 16.3875 6.90567 12.715C3.45817 9.28663 2.79651 6.29663 2.71234 4.8233C2.67067 4.0783 3.02234 3.4483 3.47067 3.0033L4.77817 1.70246ZM7.31151 2.75746C6.88901 2.1933 6.10234 2.1483 5.65901 2.58913L4.35067 3.88913C4.07567 4.16246 3.94401 4.46413 3.96067 4.75246C4.02734 5.9233 4.56067 8.6208 7.78734 11.8291C11.1723 15.1941 14.2982 15.295 15.5065 15.1816C15.7532 15.1591 15.9982 15.0308 16.2273 14.8033L17.4107 13.6258C17.8923 13.1475 17.7865 12.2758 17.1048 11.9058L15.5132 11.04C15.0732 10.8016 14.5582 10.88 14.2382 11.1983L13.859 11.5758L13.4173 11.1325C13.859 11.5758 13.8582 11.5766 13.8573 11.5766L13.8565 11.5783L13.854 11.5808L13.8482 11.5858L13.8357 11.5975C13.8002 11.6298 13.7624 11.6593 13.7223 11.6858C13.6557 11.73 13.5673 11.7791 13.4565 11.82C13.2315 11.9041 12.9332 11.9491 12.5648 11.8925C11.8423 11.7816 10.8848 11.2891 9.61234 10.0241C8.34067 8.75913 7.84401 7.80746 7.73234 7.0858C7.67484 6.71746 7.72067 6.41913 7.80567 6.19413C7.85281 6.06768 7.91976 5.94954 8.00401 5.84413L8.03067 5.81496L8.04234 5.80246L8.04734 5.79746L8.04984 5.79496L8.05151 5.7933L8.29151 5.55496C8.64817 5.19913 8.69817 4.60996 8.36234 4.1608L7.31151 2.75746Z" fill="#0C1200"/>
</g>
</svg>
