<svg width="314" height="48" fill="none" xmlns="http://www.w3.org/2000/svg"><path d="M5 8v32h4V8H5zM11 8v32h4V8h-4zM17 40V8h4v32h-4zM23 8v32h4V8h-4zM29 40V8h4v32h-4zM35 8v32h4V8h-4zM41 40V8h4v32h-4zM47 8v32h4V8h-4zM53 40V8h4v32h-4zM59 8v32h4V8h-4zM65 40V8h4v32h-4zM71 8v32h4V8h-4zM77 40V8h4v32h-4zM83 8v32h4V8h-4zM89 40V8h4v32h-4zM95 8v32h4V8h-4zM101 40V8h4v32h-4zM107 8v32h4V8h-4zM113 40V8h4v32h-4zM119 8v32h4V8h-4zM125 40V8h4v32h-4zM131 8v32h4V8h-4zM137 40V8h4v32h-4zM143 8v32h4V8h-4zM149 40V8h4v32h-4zM161 8v32h4V8h-4zM167 40V8h4v32h-4zM173 8v32h4V8h-4zM179 40V8h4v32h-4zM185 8v32h4V8h-4zM191 40V8h4v32h-4zM197 8v32h4V8h-4zM203 40V8h4v32h-4zM209 8v32h4V8h-4zM215 40V8h4v32h-4zM221 8v32h4V8h-4zM227 40V8h4v32h-4zM233 8v32h4V8h-4zM239 40V8h4v32h-4zM245 8v32h4V8h-4zM251 40V8h4v32h-4zM257 8v32h4V8h-4zM263 40V8h4v32h-4zM269 8v32h4V8h-4zM275 40V8h4v32h-4zM281 8v32h4V8h-4zM287 40V8h4v32h-4zM293 8v32h4V8h-4zM299 40V8h4v32h-4zM305 8v32h4V8h-4zM0 48V0h2v48H0zM156 48V0h2v48h-2zM312 0v48h2V0h-2z" fill="#F2F2F2"/><path fill-rule="evenodd" clip-rule="evenodd" d="M313.97 11.758a1 1 0 0 1-.727 1.212l-11.762 2.94c-.238.06-.482.09-.727.09h-11.508a.995.995 0 0 0-.242.03l-11.044 2.76a3 3 0 0 1-2.069-.226l-10.756-5.379a1.002 1.002 0 0 0-.612-.092l-11.03 1.839c-.326.054-.66.054-.986 0l-11.508-1.918a.988.988 0 0 0-.164-.014h-11.51c-.108 0-.215.017-.317.051L217.465 16.9c-.148.05-.301.087-.455.113l-11.204 1.867a3.001 3.001 0 0 1-1.835-.275l-10.677-5.34a1.002 1.002 0 0 0-.764-.053l-11.065 3.688c-.148.05-.301.087-.455.113l-11.278 1.88a2.999 2.999 0 0 1-1.647-.19l-10.552-4.396a.998.998 0 0 0-.888.059l-10.359 6.043a3.001 3.001 0 0 1-2.461.255l-10.711-3.57a.999.999 0 0 0-.44-.044l-11.139 1.392c-.407.05-.819.018-1.212-.097l-11.329-3.304a1 1 0 0 0-.28-.04H97.166a.995.995 0 0 0-.165.014l-11.426 1.904a2.998 2.998 0 0 1-1.221-.049l-10.673-2.668a1 1 0 0 0-.843.17l-10.25 7.687a3 3 0 0 1-3.14.284l-10.233-5.117a1 1 0 0 0-.69-.075L37.78 19.836a1 1 0 0 0-.465.263L26.581 30.833a3 3 0 0 1-3.07.725l-9.833-3.278a1 1 0 0 0-.916.149L1.6 36.8a1 1 0 1 1-1.2-1.6l11.162-8.371a3 3 0 0 1 2.748-.446l9.834 3.277a1 1 0 0 0 1.023-.241l10.734-10.734a3 3 0 0 1 1.394-.79L48.04 15.21a3 3 0 0 1 2.069.227l10.233 5.117a1 1 0 0 0 1.047-.095l10.25-7.687a3 3 0 0 1 2.527-.51l10.673 2.668a1 1 0 0 0 .407.016l11.426-1.904c.163-.027.328-.041.494-.041h11.548c.285 0 .567.04.84.12l11.329 3.304a1 1 0 0 0 .404.032l11.139-1.392a3 3 0 0 1 1.321.13l10.711 3.571a1 1 0 0 0 .82-.085l10.359-6.043a3.001 3.001 0 0 1 2.666-.178l10.551 4.397a1 1 0 0 0 .549.063l11.278-1.88c.051-.008.102-.02.152-.037l11.065-3.689a3 3 0 0 1 2.29.163l10.678 5.339a.999.999 0 0 0 .611.092l11.204-1.868c.051-.008.102-.02.152-.037l11.543-3.848c.306-.102.626-.154.949-.154h11.51c.165 0 .33.014.493.04l11.508 1.919c.109.018.22.018.328 0l11.03-1.838a3 3 0 0 1 1.835.275l10.757 5.379a.998.998 0 0 0 .689.075l11.044-2.76c.238-.06.482-.09.727-.09h11.508c.082 0 .163-.01.242-.03l11.762-2.94a1 1 0 0 1 1.212.728z" fill="#14C714"/></svg>