<svg width="36" height="36" viewBox="0 0 36 36" fill="none" xmlns="http://www.w3.org/2000/svg">
<path d="M30.713 6.20123C30.599 6.10274 30.4603 6.03726 30.3118 6.01185C30.1633 5.98644 30.0106 6.00207 29.8704 6.05704L5.91873 15.4304C5.6274 15.5444 5.38092 15.7498 5.2163 16.0158C5.05169 16.2819 4.97782 16.5941 5.00579 16.9057C5.03377 17.2173 5.16207 17.5114 5.37144 17.7438C5.58082 17.9763 5.85995 18.1345 6.16692 18.1948L12.5632 19.4511V26.5647C12.5633 26.8945 12.662 27.2167 12.8465 27.49C13.0311 27.7633 13.2931 27.9753 13.599 28.0986C13.9048 28.2219 14.2406 28.2511 14.5631 28.1822C14.8856 28.1134 15.1802 27.9498 15.4091 27.7123L18.5576 24.4468L23.4718 28.7547C23.7718 29.0202 24.1585 29.1669 24.5591 29.1672C24.734 29.1668 24.9078 29.1393 25.0744 29.0856C25.3474 28.9992 25.5929 28.8428 25.7866 28.6319C25.9803 28.421 26.1153 28.163 26.1782 27.8837L30.9789 7.01317C31.0127 6.86644 31.0058 6.71329 30.9589 6.57021C30.912 6.42714 30.827 6.29956 30.713 6.20123ZM6.42338 16.799C6.41886 16.7868 6.41886 16.7734 6.42338 16.7612C6.42872 16.7571 6.43472 16.7539 6.44111 16.7517L25.3166 9.36271L13.108 18.1085L6.44111 16.8037L6.42338 16.799ZM14.388 26.7266C14.3554 26.7604 14.3135 26.7838 14.2676 26.7937C14.2217 26.8036 14.1739 26.7996 14.1303 26.7822C14.0867 26.7648 14.0492 26.7349 14.0227 26.6961C13.9962 26.6574 13.9818 26.6117 13.9814 26.5647V20.432L17.4903 23.5049L14.388 26.7266ZM24.7966 27.5634C24.7879 27.6034 24.7686 27.6402 24.7407 27.6702C24.7129 27.7001 24.6775 27.722 24.6383 27.7336C24.5982 27.7476 24.5552 27.7507 24.5136 27.7423C24.472 27.734 24.4334 27.7147 24.4019 27.6863L14.4116 18.9228L29.2274 8.30494L24.7966 27.5634Z" fill="#808080"/>
</svg>
