<svg width="28" height="28" viewBox="0 0 28 28" fill="none" xmlns="http://www.w3.org/2000/svg">
<path fill-rule="evenodd" clip-rule="evenodd" d="M23.9944 5.32749C24.0812 5.24071 24.15 5.13769 24.197 5.02431C24.2439 4.91093 24.2681 4.78941 24.2681 4.66669C24.2681 4.54397 24.2439 4.42245 24.197 4.30907C24.15 4.19569 24.0812 4.09267 23.9944 4.00589C23.9076 3.91911 23.8046 3.85028 23.6912 3.80331C23.5778 3.75635 23.4563 3.73218 23.3336 3.73218C23.2109 3.73218 23.0894 3.75635 22.976 3.80331C22.8626 3.85028 22.7596 3.91911 22.6728 4.00589L14.0003 12.6803L5.32773 4.00589C5.24096 3.91911 5.13794 3.85028 5.02456 3.80331C4.91118 3.75635 4.78966 3.73218 4.66693 3.73218C4.54421 3.73218 4.42269 3.75635 4.30931 3.80331C4.19593 3.85028 4.09291 3.91911 4.00613 4.00589C3.91936 4.09267 3.85052 4.19569 3.80356 4.30907C3.75659 4.42245 3.73242 4.54397 3.73242 4.66669C3.73242 4.78941 3.75659 4.91093 3.80356 5.02431C3.85052 5.13769 3.91936 5.24071 4.00613 5.32749L12.6805 14L4.00613 22.6726C3.83088 22.8478 3.73242 23.0855 3.73242 23.3334C3.73242 23.5812 3.83088 23.8189 4.00613 23.9942C4.18139 24.1694 4.41909 24.2679 4.66693 24.2679C4.91478 24.2679 5.15248 24.1694 5.32773 23.9942L14.0003 15.3198L22.6728 23.9942C22.8481 24.1694 23.0858 24.2679 23.3336 24.2679C23.5814 24.2679 23.8191 24.1694 23.9944 23.9942C24.1697 23.8189 24.2681 23.5812 24.2681 23.3334C24.2681 23.0855 24.1697 22.8478 23.9944 22.6726L15.32 14L23.9944 5.32749Z" fill="#808080"/>
</svg>
