<svg width="37" height="36" viewBox="0 0 37 36" fill="none" xmlns="http://www.w3.org/2000/svg">
<g id="social">
<path id="Vector" d="M31.379 6.20123C31.265 6.10274 31.1263 6.03726 30.9778 6.01185C30.8293 5.98644 30.6766 6.00207 30.5364 6.05704L6.58474 15.4304C6.29342 15.5444 6.04694 15.7498 5.88232 16.0158C5.7177 16.2819 5.64383 16.5941 5.67181 16.9057C5.69978 17.2173 5.82809 17.5114 6.03746 17.7438C6.24683 17.9763 6.52596 18.1345 6.83294 18.1948L13.2292 19.4511V26.5647C13.2293 26.8945 13.328 27.2167 13.5126 27.49C13.6971 27.7633 13.9591 27.9753 14.265 28.0986C14.5709 28.2219 14.9066 28.2511 15.2291 28.1822C15.5516 28.1134 15.8462 27.9498 16.0751 27.7123L19.2236 24.4468L24.1378 28.7547C24.4378 29.0202 24.8245 29.1669 25.2251 29.1672C25.4 29.1668 25.5739 29.1393 25.7404 29.0856C26.0134 28.9992 26.259 28.8428 26.4526 28.6319C26.6463 28.421 26.7813 28.163 26.8442 27.8837L31.645 7.01317C31.6787 6.86644 31.6718 6.71329 31.6249 6.57021C31.5781 6.42714 31.493 6.29956 31.379 6.20123ZM7.0894 16.799C7.08487 16.7868 7.08487 16.7734 7.0894 16.7612C7.09474 16.7571 7.10073 16.7539 7.10713 16.7517L25.9827 9.36271L13.774 18.1085L7.10713 16.8037L7.0894 16.799ZM15.054 26.7266C15.0214 26.7604 14.9795 26.7838 14.9336 26.7937C14.8877 26.8036 14.8399 26.7996 14.7963 26.7822C14.7527 26.7648 14.7153 26.7349 14.6887 26.6961C14.6622 26.6574 14.6478 26.6117 14.6474 26.5647V20.432L18.1564 23.5049L15.054 26.7266ZM25.4626 27.5634C25.4539 27.6034 25.4346 27.6402 25.4068 27.6702C25.3789 27.7001 25.3435 27.722 25.3043 27.7336C25.2642 27.7476 25.2212 27.7507 25.1796 27.7423C25.138 27.734 25.0994 27.7147 25.0679 27.6863L15.0776 18.9228L29.8934 8.30494L25.4626 27.5634Z" fill="#0C1200"/>
</g>
</svg>
