<svg width="320" height="60" viewBox="0 0 320 60" fill="none" xmlns="http://www.w3.org/2000/svg">
<g clip-path="url(#clip0_842_28498)">
<path d="M148.053 54.4445L164.043 4.80328H171.651L155.661 54.4445H148.053Z" fill="#0C1200"/>
<path d="M118.851 53.0222C121.838 54.5393 125.464 55.2978 129.731 55.2978C132.718 55.2978 135.349 54.9185 137.624 54.16C139.947 53.4015 141.891 52.3348 143.456 50.96C145.067 49.5378 146.276 47.8785 147.082 45.9822C147.936 44.0385 148.362 41.8815 148.362 39.5111C148.362 35.3867 147.153 32.1867 144.736 29.9111C142.365 27.5882 138.667 25.9763 133.642 25.0756L129.02 24.2222C126.602 23.7956 124.848 23.1319 123.758 22.2311C122.667 21.3304 122.122 19.9319 122.122 18.0356C122.122 16.1867 122.786 14.7645 124.113 13.7689C125.488 12.7259 127.527 12.2045 130.229 12.2045C132.884 12.2045 135.088 12.6785 136.842 13.6267C138.596 14.5748 140.09 15.8074 141.322 17.3245L147.722 11.28C145.731 8.86223 143.337 7.03705 140.54 5.80446C137.743 4.57186 134.472 3.95557 130.727 3.95557C127.93 3.95557 125.417 4.31112 123.189 5.02223C121.008 5.68594 119.136 6.65779 117.571 7.93779C116.007 9.21779 114.798 10.7585 113.944 12.56C113.139 14.3615 112.736 16.3763 112.736 18.6045C112.736 26.6637 117.69 31.4756 127.598 33.04L132.291 33.7511C134.899 34.2252 136.676 34.9837 137.624 36.0267C138.573 37.0696 139.047 38.4207 139.047 40.08C139.047 42.2133 138.312 43.92 136.842 45.2C135.373 46.4326 133.192 47.0489 130.3 47.0489C127.74 47.0489 125.393 46.5274 123.26 45.4845C121.174 44.4415 119.278 42.9245 117.571 40.9333L111.242 47.0489C113.376 49.5141 115.912 51.5052 118.851 53.0222Z" fill="#0C1200"/>
<path d="M0.533325 4.8089V54.4445H29.4755V46.1245H9.91999V4.8089H0.533325Z" fill="#0C1200"/>
<path d="M31.9278 4.8089V54.4445H64.6389V46.1245H41.3144V33.4667H61.9367V25.1467H41.3144V13.1289H64.6389V4.8089H31.9278Z" fill="#0C1200"/>
<path d="M83.1 28.9867L77.98 18.6756H77.7667V54.4445H68.8778V4.8089H79.1889L94.1222 30.2667L99.2422 40.5778H99.4555V4.8089H108.344V54.4445H98.0333L83.1 28.9867Z" fill="#0C1200"/>
<path d="M184.809 33.4667H205.502V54.4445H214.889V4.8089H205.502V25.1467H184.809V4.8089H175.422V54.4445H184.809V33.4667Z" fill="#0C1200"/>
<path d="M218.782 54.4445V46.9067H225.324V12.3467H218.782V4.8089H241.324V12.3467H234.711V46.9067H241.324V54.4445H218.782Z" fill="#0C1200"/>
<path fill-rule="evenodd" clip-rule="evenodd" d="M245.225 54.4445H254.612V35.3156H263.501L272.745 54.4445H283.198L273.029 34.2489C276.111 33.2059 278.41 31.4519 279.927 28.9867C281.492 26.5215 282.274 23.5822 282.274 20.1689C282.274 17.8459 281.918 15.7363 281.207 13.84C280.543 11.9437 279.572 10.3319 278.292 9.00445C277.059 7.62964 275.542 6.58668 273.741 5.87557C271.939 5.16446 269.901 4.8089 267.625 4.8089H245.225V54.4445ZM270.967 26C269.924 26.9482 268.502 27.4222 266.701 27.4222H254.612V12.9867H266.701C268.502 12.9867 269.924 13.4608 270.967 14.4089C272.01 15.357 272.532 16.7319 272.532 18.5333V21.8045C272.532 23.6059 272.01 25.0045 270.967 26Z" fill="#0C1200"/>
<path d="M286.758 54.4445V4.8089H319.469V13.1289H296.145V25.1467H316.767V33.4667H296.145V46.1245H319.469V54.4445H286.758Z" fill="#0C1200"/>
</g>
<defs>
<clipPath id="clip0_842_28498">
<rect width="320" height="60" fill="white"/>
</clipPath>
</defs>
</svg>
