<svg width="108" height="20" viewBox="0 0 108 20" fill="none" xmlns="http://www.w3.org/2000/svg">
<path d="M49.9678 18.375L55.3644 1.6211H57.9324L52.5358 18.375H49.9678Z" fill="#0C1200"/>
<path d="M40.1122 17.895C41.1202 18.407 42.3442 18.663 43.7842 18.663C44.7922 18.663 45.6802 18.535 46.4482 18.279C47.2322 18.023 47.8882 17.663 48.4162 17.199C48.9602 16.719 49.3682 16.159 49.6402 15.519C49.9282 14.863 50.0722 14.135 50.0722 13.335C50.0722 11.943 49.6642 10.863 48.8482 10.095C48.0482 9.311 46.8002 8.767 45.1042 8.463L43.5442 8.175C42.7282 8.031 42.1362 7.807 41.7682 7.503C41.4002 7.199 41.2162 6.727 41.2162 6.087C41.2162 5.463 41.4402 4.983 41.8882 4.647C42.3522 4.295 43.0402 4.119 43.9522 4.119C44.8482 4.119 45.5922 4.279 46.1842 4.599C46.7762 4.919 47.2802 5.335 47.6962 5.847L49.8562 3.807C49.1842 2.991 48.3762 2.375 47.4322 1.959C46.4882 1.543 45.3842 1.335 44.1202 1.335C43.1762 1.335 42.3282 1.455 41.5762 1.695C40.8402 1.919 40.2082 2.247 39.6802 2.679C39.1522 3.111 38.7442 3.631 38.4562 4.239C38.1842 4.847 38.0482 5.527 38.0482 6.279C38.0482 8.999 39.7202 10.623 43.0642 11.151L44.6482 11.391C45.5282 11.551 46.1282 11.807 46.4482 12.159C46.7682 12.511 46.9282 12.967 46.9282 13.527C46.9282 14.247 46.6802 14.823 46.1842 15.255C45.6882 15.671 44.9522 15.879 43.9762 15.879C43.1122 15.879 42.3202 15.703 41.6002 15.351C40.8962 14.999 40.2562 14.487 39.6802 13.815L37.5442 15.879C38.2642 16.711 39.1202 17.383 40.1122 17.895Z" fill="#0C1200"/>
<path d="M0.179993 1.623V18.375H9.94799V15.567H3.34799V1.623H0.179993Z" fill="#0C1200"/>
<path d="M10.7756 1.623V18.375H21.8156V15.567H13.9436V11.295H20.9036V8.487H13.9436V4.431H21.8156V1.623H10.7756Z" fill="#0C1200"/>
<path d="M28.0462 9.783L26.3182 6.303H26.2462V18.375H23.2462V1.623H26.7262L31.7662 10.215L33.4942 13.695H33.5662V1.623H36.5662V18.375H33.0862L28.0462 9.783Z" fill="#0C1200"/>
<path d="M62.373 11.295H69.357V18.375H72.525V1.623H69.357V8.487H62.373V1.623H59.205V18.375H62.373V11.295Z" fill="#0C1200"/>
<path d="M73.839 18.375V15.831H76.047V4.167H73.839V1.623H81.447V4.167H79.215V15.831H81.447V18.375H73.839Z" fill="#0C1200"/>
<path fill-rule="evenodd" clip-rule="evenodd" d="M82.7634 18.375H85.9314V11.919H88.9314L92.0514 18.375H95.5794L92.1474 11.559C93.1874 11.207 93.9634 10.615 94.4754 9.783C95.0034 8.951 95.2674 7.959 95.2674 6.807C95.2674 6.023 95.1474 5.311 94.9074 4.671C94.6834 4.031 94.3554 3.487 93.9234 3.039C93.5074 2.575 92.9954 2.223 92.3874 1.983C91.7794 1.743 91.0914 1.623 90.3234 1.623H82.7634V18.375ZM91.4514 8.775C91.0994 9.095 90.6194 9.255 90.0114 9.255H85.9314V4.383H90.0114C90.6194 4.383 91.0994 4.543 91.4514 4.863C91.8034 5.183 91.9794 5.647 91.9794 6.255V7.359C91.9794 7.967 91.8034 8.439 91.4514 8.775Z" fill="#0C1200"/>
<path d="M96.7809 18.375V1.623H107.821V4.431H99.9489V8.487H106.909V11.295H99.9489V15.567H107.821V18.375H96.7809Z" fill="#0C1200"/>
</svg>
