<svg width="16" height="15" viewBox="0 0 16 15" fill="none" xmlns="http://www.w3.org/2000/svg">
<g id="ph:camera">
<path id="Vector" d="M12.5004 3.4501H10.9411L10.1745 2.30035C10.1334 2.23878 10.0778 2.1883 10.0125 2.15337C9.94726 2.11844 9.8744 2.10014 9.80039 2.1001H6.20039C6.12638 2.10014 6.05353 2.11844 5.98828 2.15337C5.92303 2.1883 5.8674 2.23878 5.82633 2.30035L5.05908 3.4501H3.50039C3.14235 3.4501 2.79897 3.59233 2.5458 3.8455C2.29262 4.09868 2.15039 4.44206 2.15039 4.8001V11.1001C2.15039 11.4581 2.29262 11.8015 2.5458 12.0547C2.79897 12.3079 3.14235 12.4501 3.50039 12.4501H12.5004C12.8584 12.4501 13.2018 12.3079 13.455 12.0547C13.7082 11.8015 13.8504 11.4581 13.8504 11.1001V4.8001C13.8504 4.44206 13.7082 4.09868 13.455 3.8455C13.2018 3.59233 12.8584 3.4501 12.5004 3.4501ZM12.9504 11.1001C12.9504 11.2194 12.903 11.3339 12.8186 11.4183C12.7342 11.5027 12.6197 11.5501 12.5004 11.5501H3.50039C3.38104 11.5501 3.26658 11.5027 3.18219 11.4183C3.0978 11.3339 3.05039 11.2194 3.05039 11.1001V4.8001C3.05039 4.68075 3.0978 4.56629 3.18219 4.4819C3.26658 4.39751 3.38104 4.3501 3.50039 4.3501H5.30039C5.3745 4.35015 5.44746 4.33189 5.51282 4.29696C5.57817 4.26202 5.63389 4.21149 5.67502 4.14985L6.44114 3.0001H9.55908L10.3258 4.14985C10.3669 4.21149 10.4226 4.26202 10.488 4.29696C10.5533 4.33189 10.6263 4.35015 10.7004 4.3501H12.5004C12.6197 4.3501 12.7342 4.39751 12.8186 4.4819C12.903 4.56629 12.9504 4.68075 12.9504 4.8001V11.1001ZM8.00039 5.2501C7.51088 5.2501 7.03237 5.39525 6.62535 5.66721C6.21834 5.93917 5.90112 6.32571 5.71379 6.77796C5.52646 7.2302 5.47745 7.72784 5.57295 8.20795C5.66845 8.68805 5.90417 9.12905 6.2503 9.47519C6.59644 9.82132 7.03744 10.057 7.51754 10.1525C7.99764 10.248 8.49529 10.199 8.94753 10.0117C9.39978 9.82437 9.78632 9.50715 10.0583 9.10013C10.3302 8.69312 10.4754 8.21461 10.4754 7.7251C10.4746 7.06892 10.2136 6.43982 9.74966 5.97583C9.28567 5.51184 8.65657 5.25084 8.00039 5.2501ZM8.00039 9.3001C7.68888 9.3001 7.38437 9.20773 7.12537 9.03466C6.86636 8.8616 6.66449 8.61562 6.54528 8.32782C6.42607 8.04003 6.39488 7.72335 6.45565 7.41783C6.51643 7.11231 6.66643 6.83167 6.8867 6.6114C7.10697 6.39114 7.3876 6.24113 7.69312 6.18036C7.99864 6.11959 8.31532 6.15078 8.60312 6.26999C8.89091 6.3892 9.13689 6.59107 9.30995 6.85007C9.48302 7.10908 9.57539 7.41359 9.57539 7.7251C9.57539 8.14281 9.40945 8.54342 9.11408 8.83879C8.81871 9.13416 8.41811 9.3001 8.00039 9.3001Z" fill="white"/>
</g>
</svg>
