<svg width="44" height="45" viewBox="0 0 44 45" fill="none" xmlns="http://www.w3.org/2000/svg">
<g clip-path="url(#clip0_2915_12208)">
<path fill-rule="evenodd" clip-rule="evenodd" d="M42.3035 14.0136C40.937 14.9513 39.2826 15.5 37.5 15.5C32.8056 15.5 29 11.6944 29 7C29 5.21744 29.5487 3.56304 30.4864 2.19649C27.875 1.10368 25.008 0.5 22 0.5C9.84974 0.5 0 10.3497 0 22.5C0 34.6503 9.84974 44.5 22 44.5C34.1503 44.5 44 34.6503 44 22.5C44 19.492 43.3963 16.625 42.3035 14.0136Z" fill="#E0E0E0"/>
<path d="M30.2504 15.0746H27.3918L25.9862 12.9667C25.9109 12.8539 25.8089 12.7613 25.6893 12.6973C25.5696 12.6332 25.4361 12.5997 25.3004 12.5996H18.7004C18.5647 12.5997 18.4311 12.6332 18.3115 12.6973C18.1919 12.7613 18.0899 12.8539 18.0146 12.9667L16.608 15.0746H13.7504C13.094 15.0746 12.4645 15.3354 12.0003 15.7995C11.5361 16.2637 11.2754 16.8932 11.2754 17.5496V29.0996C11.2754 29.756 11.5361 30.3855 12.0003 30.8497C12.4645 31.3139 13.094 31.5746 13.7504 31.5746H30.2504C30.9068 31.5746 31.5363 31.3139 32.0005 30.8497C32.4646 30.3855 32.7254 29.756 32.7254 29.0996V17.5496C32.7254 16.8932 32.4646 16.2637 32.0005 15.7995C31.5363 15.3354 30.9068 15.0746 30.2504 15.0746ZM31.0754 29.0996C31.0754 29.3184 30.9885 29.5283 30.8338 29.683C30.679 29.8377 30.4692 29.9246 30.2504 29.9246H13.7504C13.5316 29.9246 13.3217 29.8377 13.167 29.683C13.0123 29.5283 12.9254 29.3184 12.9254 29.0996V17.5496C12.9254 17.3308 13.0123 17.121 13.167 16.9662C13.3217 16.8115 13.5316 16.7246 13.7504 16.7246H17.0504C17.1862 16.7247 17.32 16.6912 17.4398 16.6272C17.5597 16.5631 17.6618 16.4705 17.7372 16.3575L19.1418 14.2496H24.858L26.2636 16.3575C26.339 16.4705 26.4411 16.5631 26.5609 16.6272C26.6808 16.6912 26.8145 16.7247 26.9504 16.7246H30.2504C30.4692 16.7246 30.679 16.8115 30.8338 16.9662C30.9885 17.121 31.0754 17.3308 31.0754 17.5496V29.0996ZM22.0004 18.3746C21.103 18.3746 20.2257 18.6407 19.4795 19.1393C18.7333 19.6379 18.1517 20.3466 17.8083 21.1757C17.4649 22.0048 17.375 22.9171 17.5501 23.7973C17.7252 24.6775 18.1573 25.486 18.7919 26.1206C19.4265 26.7552 20.235 27.1873 21.1152 27.3624C21.9954 27.5375 22.9077 27.4476 23.7368 27.1042C24.5659 26.7608 25.2746 26.1792 25.7732 25.433C26.2718 24.6868 26.5379 23.8095 26.5379 22.9121C26.5365 21.7091 26.058 20.5558 25.2074 19.7051C24.3567 18.8545 23.2034 18.376 22.0004 18.3746ZM22.0004 25.7996C21.4293 25.7996 20.871 25.6303 20.3962 25.313C19.9213 24.9957 19.5512 24.5447 19.3327 24.0171C19.1141 23.4895 19.057 22.9089 19.1684 22.3488C19.2798 21.7887 19.5548 21.2742 19.9586 20.8703C20.3624 20.4665 20.8769 20.1915 21.4371 20.0801C21.9972 19.9687 22.5778 20.0259 23.1054 20.2444C23.633 20.463 24.084 20.8331 24.4013 21.3079C24.7185 21.7827 24.8879 22.341 24.8879 22.9121C24.8879 23.6779 24.5837 24.4124 24.0422 24.9539C23.5007 25.4954 22.7662 25.7996 22.0004 25.7996Z" fill="#757575"/>
<path d="M37.4008 0.5C39.1512 0.5 40.8299 1.19536 42.0677 2.4331C43.3054 3.67084 44.0008 5.34957 44.0008 7.1C44.0008 8.85043 43.3054 10.5292 42.0677 11.7669C40.8299 13.0046 39.1512 13.7 37.4008 13.7C35.6504 13.7 33.9716 13.0046 32.7339 11.7669C31.4961 10.5292 30.8008 8.85043 30.8008 7.1C30.8008 5.34957 31.4961 3.67084 32.7339 2.4331C33.9716 1.19536 35.6504 0.5 37.4008 0.5ZM38.2769 4.0574C38.2769 3.8386 38.19 3.62875 38.0353 3.47404C37.8806 3.31932 37.6707 3.2324 37.4519 3.2324C37.2331 3.2324 37.0233 3.31932 36.8686 3.47404C36.7139 3.62875 36.6269 3.8386 36.6269 4.0574V6.32615H34.3582C34.1394 6.32615 33.9295 6.41307 33.7748 6.56779C33.6201 6.7225 33.5332 6.93235 33.5332 7.15115C33.5332 7.36995 33.6201 7.5798 33.7748 7.73451C33.9295 7.88923 34.1394 7.97615 34.3582 7.97615H36.6269V10.2449C36.6269 10.4637 36.7139 10.6735 36.8686 10.8283C37.0233 10.983 37.2331 11.0699 37.4519 11.0699C37.6707 11.0699 37.8806 10.983 38.0353 10.8283C38.19 10.6735 38.2769 10.4637 38.2769 10.2449V7.97615H40.5457C40.7645 7.97615 40.9743 7.88923 41.129 7.73451C41.2838 7.5798 41.3707 7.36995 41.3707 7.15115C41.3707 6.93235 41.2838 6.7225 41.129 6.56779C40.9743 6.41307 40.7645 6.32615 40.5457 6.32615H38.2769V4.0574Z" fill="#91E500"/>
</g>
<defs>
<clipPath id="clip0_2915_12208">
<rect y="0.5" width="44" height="44" fill="white"/>
</clipPath>
</defs>
</svg>
