<svg width="100" height="100" fill="none" xmlns="http://www.w3.org/2000/svg"><rect width="100" height="100" rx="12" fill="#AFFA00"/><path d="M19.877 23.114c11.723 2.003 19.332.01 28.063-7.31a3.214 3.214 0 0 1 4.12 0c8.732 7.32 16.34 9.313 28.063 7.31 1.764-.301 3.463.92 3.594 2.705 2.037 27.719-6.787 47.305-30.587 58.759a7.23 7.23 0 0 1-6.26 0c-23.8-11.454-32.623-31.04-30.587-58.759.131-1.785 1.83-3.006 3.594-2.705z" fill="#0C1200"/><rect x="35" y="43" width="30" height="24" rx="2" fill="#AFFA00"/><path fill-rule="evenodd" clip-rule="evenodd" d="M40 34a4 4 0 0 1 4-4h12a4 4 0 0 1 4 4v6h-4v-6H44v6h-4v-6z" fill="#AFFA00"/><path fill-rule="evenodd" clip-rule="evenodd" d="M52.316 55.262a4 4 0 1 0-4.631 0l-1.374 5.495A1 1 0 0 0 47.28 62h5.438a1 1 0 0 0 .97-1.242l-1.373-5.496z" fill="#0C1200"/></svg>