<svg width="100" height="100" fill="none" xmlns="http://www.w3.org/2000/svg"><rect width="100" height="100" rx="12" fill="#AFFA00"/><path d="M70.515 20h-41.03a6 6 0 0 0-4.242 1.757L12.145 34.855a6 6 0 0 0-.097 8.385L45.66 78.453a6 6 0 0 0 8.68 0L87.952 43.24a6 6 0 0 0-.097-8.385L74.757 21.757A6 6 0 0 0 70.515 20z" fill="#0C1200"/><path d="m10 39 40 41 40-41H10z" fill="#AFFA00"/><path d="M31 39h38L50.5 79.5h-1L31 39z" fill="#0C1200"/><path d="m31 39 9-17h20l9 17H31z" fill="#AFFA00"/><path d="M29.485 21.5h41.03a4.5 4.5 0 0 1 3.182 1.318l13.097 13.098a4.5 4.5 0 0 1 .073 6.289L53.255 77.418a4.5 4.5 0 0 1-6.51 0L13.133 42.205a4.5 4.5 0 0 1 .073-6.29l13.097-13.097a4.5 4.5 0 0 1 3.182-1.318z" stroke="#0C1200" stroke-width="3"/></svg>