<svg width="100" height="100" fill="none" xmlns="http://www.w3.org/2000/svg"><g clip-path="url(#a)"><rect width="100" height="100" rx="12" fill="#AFFA00"/><path d="M47.52 82.167C-12.73 60.998 11.575-.261 48.837 23.314c.69.436 1.635.436 2.325 0C88.425-.26 112.728 60.998 52.48 82.167a7.622 7.622 0 0 1-4.962 0z" fill="#0C1200"/><circle cx="50" cy="102" r="42" fill="#AFFA00"/><path d="M49.193 30.104a1 1 0 0 1 1.614 0l4.47 6.113a1 1 0 0 0 .495.36l7.194 2.361a1 1 0 0 1 .5 1.536l-4.433 6.14a1 1 0 0 0-.19.581l-.022 7.573a1 1 0 0 1-1.306.949l-7.209-2.319a1 1 0 0 0-.612 0l-7.209 2.319a1 1 0 0 1-1.306-.95l-.023-7.572a1 1 0 0 0-.19-.582l-4.431-6.14a1 1 0 0 1 .499-1.535l7.194-2.362a1 1 0 0 0 .495-.36l4.47-6.112z" fill="#AFFA00"/><path d="m51.965 24.581-.802-1.267.802 1.267c8.995-5.69 16.984-6.14 23.016-3.61 6.06 2.542 10.426 8.206 11.94 15.304 3.002 14.077-5.315 34.069-34.938 44.477a6.121 6.121 0 0 1-3.966 0c-29.623-10.408-37.94-30.4-34.938-44.477 1.514-7.098 5.88-12.762 11.94-15.304 6.033-2.53 14.022-2.08 23.017 3.61a3.726 3.726 0 0 0 3.929 0z" stroke="#0C1200" stroke-width="3"/></g><defs><clipPath id="a"><rect width="100" height="100" rx="12" fill="#fff"/></clipPath></defs></svg>