<svg width="24" height="24" viewBox="0 0 24 24" fill="none" xmlns="http://www.w3.org/2000/svg">
<path d="M11.0408 17.2808C7.58478 17.2808 4.80078 14.4968 4.80078 11.0408C4.80078 7.58478 7.58478 4.80078 11.0408 4.80078C14.4968 4.80078 17.2808 7.58478 17.2808 11.0408C17.2808 14.4968 14.4968 17.2808 11.0408 17.2808ZM11.0408 5.76078C8.11278 5.76078 5.76078 8.11278 5.76078 11.0408C5.76078 13.9688 8.11278 16.3208 11.0408 16.3208C13.9688 16.3208 16.3208 13.9688 16.3208 11.0408C16.3208 8.11278 13.9688 5.76078 11.0408 5.76078Z" fill="#757575"/>
<path d="M15.6865 15.0078L19.9969 19.3182L19.3182 19.9969L15.0078 15.6865L15.6865 15.0078Z" fill="#757575"/>
</svg>
