<svg width="28" height="28" viewBox="0 0 28 28" fill="none" xmlns="http://www.w3.org/2000/svg">
<g id="share">
<path id="Vector" d="M20.8787 18.2778C20.3985 18.2796 19.9236 18.3784 19.4825 18.5683C19.0415 18.7582 18.6433 19.0353 18.312 19.3829L9.62098 15.0338C9.83477 14.3855 9.83477 13.6858 9.62098 13.0375L18.3263 8.61C18.9498 9.26708 19.7954 9.66886 20.6986 9.73723C21.6019 9.8056 22.4983 9.53569 23.2137 8.97995C23.929 8.42421 24.4122 7.62234 24.5692 6.73022C24.7263 5.83809 24.5461 4.91943 24.0635 4.15279C23.581 3.38615 22.8307 2.82631 21.9584 2.58208C21.0861 2.33785 20.1541 2.42668 19.3436 2.8313C18.5332 3.23592 17.9021 3.92742 17.5731 4.77141C17.2441 5.6154 17.2406 6.55157 17.5634 7.39796L8.94366 11.7827C8.47813 11.2133 7.84791 10.8019 7.13938 10.6048C6.43085 10.4077 5.6787 10.4346 4.98603 10.6817C4.29336 10.9288 3.69408 11.3842 3.27034 11.9852C2.8466 12.5863 2.61914 13.3038 2.61914 14.0392C2.61914 14.7746 2.8466 15.4921 3.27034 16.0932C3.69408 16.6943 4.29336 17.1496 4.98603 17.3967C5.6787 17.6439 6.43085 17.6707 7.13938 17.4736C7.84791 17.2765 8.47813 16.8651 8.94366 16.2957L17.542 20.6234C17.3967 21.0135 17.3219 21.4263 17.321 21.8426C17.321 22.5476 17.5301 23.2369 17.9218 23.8231C18.3135 24.4093 18.8702 24.8662 19.5216 25.136C20.173 25.4059 20.8897 25.4765 21.5813 25.3389C22.2728 25.2014 22.908 24.8618 23.4065 24.3633C23.905 23.8647 24.2446 23.2296 24.3821 22.5381C24.5197 21.8465 24.4491 21.1298 24.1793 20.4784C23.9094 19.827 23.4525 19.2703 22.8663 18.8786C22.2801 18.4868 21.5908 18.2778 20.8858 18.2778H20.8787ZM20.8787 4.01852C21.3017 4.01852 21.7152 4.14396 22.067 4.37898C22.4187 4.61401 22.6929 4.94806 22.8547 5.33889C23.0166 5.72972 23.059 6.15978 22.9765 6.57468C22.8939 6.98959 22.6902 7.3707 22.3911 7.66983C22.092 7.96896 21.7108 8.17267 21.2959 8.2552C20.881 8.33773 20.451 8.29537 20.0601 8.13348C19.6693 7.97159 19.3353 7.69745 19.1002 7.34571C18.8652 6.99397 18.7398 6.58044 18.7398 6.1574C18.7398 5.59014 18.9651 5.0461 19.3662 4.64498C19.7674 4.24386 20.3114 4.01852 20.8787 4.01852ZM6.24153 16.1389C5.8185 16.1389 5.40497 16.0134 5.05323 15.7784C4.70149 15.5434 4.42735 15.2093 4.26546 14.8185C4.10357 14.4277 4.06121 13.9976 4.14374 13.5827C4.22627 13.1678 4.42998 12.7867 4.72911 12.4876C5.02824 12.1884 5.40935 11.9847 5.82426 11.9022C6.23916 11.8197 6.66922 11.862 7.06005 12.0239C7.45088 12.1858 7.78493 12.46 8.01995 12.8117C8.25498 13.1634 8.38042 13.577 8.38042 14C8.38042 14.5673 8.15508 15.1113 7.75396 15.5124C7.35284 15.9135 6.8088 16.1389 6.24153 16.1389ZM20.8787 23.9815C20.4556 23.9815 20.0421 23.856 19.6904 23.621C19.3386 23.386 19.0645 23.0519 18.9026 22.6611C18.7407 22.2703 18.6983 21.8402 18.7809 21.4253C18.8634 21.0104 19.0671 20.6293 19.3662 20.3302C19.6654 20.031 20.0465 19.8273 20.4614 19.7448C20.8763 19.6623 21.3064 19.7046 21.6972 19.8665C22.088 20.0284 22.4221 20.3025 22.6571 20.6543C22.8921 21.006 23.0176 21.4196 23.0176 21.8426C23.0176 22.4099 22.7922 22.9539 22.3911 23.355C21.99 23.7561 21.4459 23.9815 20.8787 23.9815Z" fill="#0C1200"/>
</g>
</svg>
