<svg width="14" height="14" fill="none" xmlns="http://www.w3.org/2000/svg"><path d="M8.264.817c-.487-1.09-2.041-1.09-2.528 0L4.18 4.297H1.386c-1.232 0-1.85 1.482-.978 2.348l2.228 2.216-.812 3.445c-.28 1.192 1.025 2.127 2.073 1.485l3.1-1.9 3.05 1.896c1.04.646 2.349-.274 2.083-1.465l-.772-3.455 2.234-2.222c.871-.866.254-2.348-.978-2.348H9.82L8.264.817z" fill="#0C1200"/><path d="M8.264.817c-.487-1.09-2.041-1.09-2.528 0L4.18 4.297H1.386c-1.232 0-1.85 1.482-.978 2.348l2.228 2.216-.812 3.445c-.28 1.192 1.025 2.127 2.073 1.485l3.1-1.9 3.05 1.896c1.04.646 2.349-.274 2.083-1.465l-.772-3.455 2.234-2.222c.871-.866.254-2.348-.978-2.348H9.82L8.264.817z" fill="#000" fill-opacity=".2"/><path d="M8.264.817c-.487-1.09-2.041-1.09-2.528 0L4.18 4.297H1.386c-1.232 0-1.85 1.482-.978 2.348l2.228 2.216-.812 3.445c-.28 1.192 1.025 2.127 2.073 1.485l3.1-1.9 3.05 1.896c1.04.646 2.349-.274 2.083-1.465l-.772-3.455 2.234-2.222c.871-.866.254-2.348-.978-2.348H9.82L8.264.817z" fill="#000" fill-opacity=".2"/><path d="M8.264.817c-.487-1.09-2.041-1.09-2.528 0L4.18 4.297H1.386c-1.232 0-1.85 1.482-.978 2.348l2.228 2.216-.812 3.445c-.28 1.192 1.025 2.127 2.073 1.485l3.1-1.9 3.05 1.896c1.04.646 2.349-.274 2.083-1.465l-.772-3.455 2.234-2.222c.871-.866.254-2.348-.978-2.348H9.82L8.264.817z" fill="#000" fill-opacity=".2"/><path d="M8.264.817c-.487-1.09-2.041-1.09-2.528 0L4.18 4.297H1.386c-1.232 0-1.85 1.482-.978 2.348l2.228 2.216-.812 3.445c-.28 1.192 1.025 2.127 2.073 1.485l3.1-1.9 3.05 1.896c1.04.646 2.349-.274 2.083-1.465l-.772-3.455 2.234-2.222c.871-.866.254-2.348-.978-2.348H9.82L8.264.817z" fill="#000" fill-opacity=".2"/></svg>