<svg width="100" height="100" fill="none" xmlns="http://www.w3.org/2000/svg"><rect width="100" height="100" rx="12" fill="#AFFA00"/><path d="M19.5 24a4.5 4.5 0 0 1 4.5-4.5h52a4.5 4.5 0 0 1 4.5 4.5v52a4.5 4.5 0 0 1-4.5 4.5H24a4.5 4.5 0 0 1-4.5-4.5V24z" stroke="#0C1200" stroke-width="3"/><path d="M18 24a6 6 0 0 1 6-6h26v9.338c0 .808.938 1.313 1.702 1.048a7 7 0 1 1 0 13.228c-.764-.265-1.702.24-1.702 1.048V50h-7.338c-.808 0-1.313-.938-1.048-1.702a7 7 0 1 0-13.228 0c.265.764-.24 1.702-1.048 1.702H18V24zM72 54a7 7 0 1 1-13.614-2.298c.265-.764-.24-1.702-1.048-1.702H50v7.338c0 .808-.938 1.313-1.702 1.048a7 7 0 1 0 0 13.228c.764-.265 1.702.24 1.702 1.048V82h26a6 6 0 0 0 6-6V50h-9.338c-.808 0-1.313.938-1.048 1.702.25.72.386 1.493.386 2.298z" fill="#0C1200"/></svg>