<svg width="44" height="45" viewBox="0 0 44 45" fill="none" xmlns="http://www.w3.org/2000/svg">
<g clip-path="url(#clip0_2915_13570)">
<path fill-rule="evenodd" clip-rule="evenodd" d="M42.3035 14.0136C40.937 14.9513 39.2826 15.5 37.5 15.5C32.8056 15.5 29 11.6944 29 7C29 5.21744 29.5487 3.56304 30.4864 2.19649C27.875 1.10368 25.008 0.5 22 0.5C9.84974 0.5 0 10.3497 0 22.5C0 34.6503 9.84974 44.5 22 44.5C34.1503 44.5 44 34.6503 44 22.5C44 19.492 43.3963 16.625 42.3035 14.0136Z" fill="#E0E0E0"/>
<path d="M23.925 14.25C24.8731 14.25 25.7825 14.6267 26.4529 15.2971C27.1234 15.9675 27.5 16.8769 27.5 17.825V18.0153L31.7504 15.4655C31.8756 15.3904 32.0185 15.3498 32.1645 15.3479C32.3104 15.346 32.4543 15.383 32.5814 15.4549C32.7084 15.5268 32.8141 15.6312 32.8877 15.7573C32.9612 15.8834 33 16.0268 33 16.1728V28.825C33 28.971 32.9612 29.1144 32.8877 29.2405C32.8141 29.3666 32.7084 29.471 32.5814 29.5429C32.4543 29.6148 32.3104 29.6518 32.1645 29.6499C32.0185 29.648 31.8756 29.6074 31.7504 29.5323L27.5 26.9825V27.175C27.5 28.1231 27.1234 29.0325 26.4529 29.7029C25.7825 30.3734 24.8731 30.75 23.925 30.75H14.575C13.6269 30.75 12.7175 30.3734 12.0471 29.7029C11.3767 29.0325 11 28.1231 11 27.175V17.825C11 16.8769 11.3767 15.9675 12.0471 15.2971C12.7175 14.6267 13.6269 14.25 14.575 14.25H23.925ZM23.925 15.9H14.575C14.0645 15.9 13.5748 16.1028 13.2138 16.4638C12.8528 16.8248 12.65 17.3145 12.65 17.825V27.175C12.65 28.2376 13.5124 29.1 14.575 29.1H23.925C24.4355 29.1 24.9252 28.8972 25.2862 28.5362C25.6472 28.1752 25.85 27.6855 25.85 27.175V17.825C25.85 17.3145 25.6472 16.8248 25.2862 16.4638C24.9252 16.1028 24.4355 15.9 23.925 15.9ZM31.35 17.6303L27.5 19.9414V25.0575L31.35 27.3675V17.6303Z" fill="#757575"/>
<path d="M37.4008 0.5C39.1512 0.5 40.8299 1.19536 42.0677 2.4331C43.3054 3.67084 44.0008 5.34957 44.0008 7.1C44.0008 8.85043 43.3054 10.5292 42.0677 11.7669C40.8299 13.0046 39.1512 13.7 37.4008 13.7C35.6504 13.7 33.9716 13.0046 32.7339 11.7669C31.4961 10.5292 30.8008 8.85043 30.8008 7.1C30.8008 5.34957 31.4961 3.67084 32.7339 2.4331C33.9716 1.19536 35.6504 0.5 37.4008 0.5ZM38.2769 4.0574C38.2769 3.8386 38.19 3.62875 38.0353 3.47404C37.8806 3.31932 37.6707 3.2324 37.4519 3.2324C37.2331 3.2324 37.0233 3.31932 36.8686 3.47404C36.7139 3.62875 36.6269 3.8386 36.6269 4.0574V6.32615H34.3582C34.1394 6.32615 33.9295 6.41307 33.7748 6.56779C33.6201 6.7225 33.5332 6.93235 33.5332 7.15115C33.5332 7.36995 33.6201 7.5798 33.7748 7.73451C33.9295 7.88923 34.1394 7.97615 34.3582 7.97615H36.6269V10.2449C36.6269 10.4637 36.7139 10.6735 36.8686 10.8283C37.0233 10.983 37.2331 11.0699 37.4519 11.0699C37.6707 11.0699 37.8806 10.983 38.0353 10.8283C38.19 10.6735 38.2769 10.4637 38.2769 10.2449V7.97615H40.5457C40.7645 7.97615 40.9743 7.88923 41.129 7.73451C41.2838 7.5798 41.3707 7.36995 41.3707 7.15115C41.3707 6.93235 41.2838 6.7225 41.129 6.56779C40.9743 6.41307 40.7645 6.32615 40.5457 6.32615H38.2769V4.0574Z" fill="#91E500"/>
</g>
<defs>
<clipPath id="clip0_2915_13570">
<rect width="44" height="44" fill="white" transform="translate(0 0.5)"/>
</clipPath>
</defs>
</svg>
