<svg width="40" height="40" viewBox="0 0 40 40" fill="none" xmlns="http://www.w3.org/2000/svg">
<rect width="40" height="40" rx="20" fill="#0C1200"/>
<path d="M21.75 12.5C22.612 12.5 23.4386 12.8424 24.0481 13.4519C24.6576 14.0614 25 14.888 25 15.75V15.923L28.864 13.605C28.9778 13.5367 29.1077 13.4998 29.2404 13.4981C29.3731 13.4964 29.5039 13.53 29.6194 13.5953C29.735 13.6607 29.831 13.7556 29.8979 13.8703C29.9648 13.9849 30 14.1153 30 14.248V25.75C30 25.8827 29.9648 26.0131 29.8979 26.1277C29.831 26.2424 29.735 26.3373 29.6194 26.4027C29.5039 26.468 29.3731 26.5016 29.2404 26.4999C29.1077 26.4982 28.9778 26.4613 28.864 26.393L25 24.075V24.25C25 25.112 24.6576 25.9386 24.0481 26.5481C23.4386 27.1576 22.612 27.5 21.75 27.5H13.25C12.388 27.5 11.5614 27.1576 10.9519 26.5481C10.3424 25.9386 10 25.112 10 24.25V15.75C10 14.888 10.3424 14.0614 10.9519 13.4519C11.5614 12.8424 12.388 12.5 13.25 12.5H21.75ZM21.75 14H13.25C12.7859 14 12.3408 14.1844 12.0126 14.5126C11.6844 14.8408 11.5 15.2859 11.5 15.75V24.25C11.5 25.216 12.284 26 13.25 26H21.75C22.2141 26 22.6592 25.8156 22.9874 25.4874C23.3156 25.1592 23.5 24.7141 23.5 24.25V15.75C23.5 15.2859 23.3156 14.8408 22.9874 14.5126C22.6592 14.1844 22.2141 14 21.75 14ZM28.5 15.573L25 17.674V22.325L28.5 24.425V15.573Z" fill="white"/>
</svg>
