<svg width="40" height="40" viewBox="0 0 40 40" fill="none" xmlns="http://www.w3.org/2000/svg">
<rect width="40" height="40" rx="20" fill="#0C1200"/>
<path d="M27.5 13.25H24.9012L23.6234 11.3338C23.555 11.2311 23.4623 11.147 23.3535 11.0888C23.2448 11.0306 23.1233 11.0001 23 11H17C16.8767 11.0001 16.7552 11.0306 16.6465 11.0888C16.5377 11.147 16.445 11.2311 16.3766 11.3338L15.0978 13.25H12.5C11.9033 13.25 11.331 13.4871 10.909 13.909C10.4871 14.331 10.25 14.9033 10.25 15.5V26C10.25 26.5967 10.4871 27.169 10.909 27.591C11.331 28.0129 11.9033 28.25 12.5 28.25H27.5C28.0967 28.25 28.669 28.0129 29.091 27.591C29.5129 27.169 29.75 26.5967 29.75 26V15.5C29.75 14.9033 29.5129 14.331 29.091 13.909C28.669 13.4871 28.0967 13.25 27.5 13.25ZM28.25 26C28.25 26.1989 28.171 26.3897 28.0303 26.5303C27.8897 26.671 27.6989 26.75 27.5 26.75H12.5C12.3011 26.75 12.1103 26.671 11.9697 26.5303C11.829 26.3897 11.75 26.1989 11.75 26V15.5C11.75 15.3011 11.829 15.1103 11.9697 14.9697C12.1103 14.829 12.3011 14.75 12.5 14.75H15.5C15.6235 14.7501 15.7451 14.7197 15.854 14.6614C15.963 14.6032 16.0558 14.519 16.1244 14.4163L17.4012 12.5H22.5978L23.8756 14.4163C23.9442 14.519 24.037 14.6032 24.146 14.6614C24.2549 14.7197 24.3765 14.7501 24.5 14.75H27.5C27.6989 14.75 27.8897 14.829 28.0303 14.9697C28.171 15.1103 28.25 15.3011 28.25 15.5V26ZM20 16.25C19.1842 16.25 18.3866 16.4919 17.7083 16.9452C17.0299 17.3984 16.5012 18.0427 16.189 18.7964C15.8768 19.5502 15.7951 20.3796 15.9543 21.1797C16.1134 21.9799 16.5063 22.7149 17.0832 23.2918C17.6601 23.8687 18.3951 24.2616 19.1953 24.4207C19.9954 24.5799 20.8248 24.4982 21.5786 24.186C22.3323 23.8738 22.9766 23.3451 23.4298 22.6667C23.8831 21.9884 24.125 21.1908 24.125 20.375C24.1238 19.2814 23.6888 18.2329 22.9154 17.4596C22.1421 16.6862 21.0936 16.2512 20 16.25ZM20 23C19.4808 23 18.9733 22.846 18.5416 22.5576C18.1099 22.2692 17.7735 21.8592 17.5748 21.3795C17.3761 20.8999 17.3242 20.3721 17.4254 19.8629C17.5267 19.3537 17.7767 18.886 18.1438 18.5188C18.511 18.1517 18.9787 17.9017 19.4879 17.8004C19.9971 17.6992 20.5249 17.7511 21.0045 17.9498C21.4842 18.1485 21.8942 18.4849 22.1826 18.9166C22.471 19.3483 22.625 19.8558 22.625 20.375C22.625 21.0712 22.3484 21.7389 21.8562 22.2312C21.3639 22.7234 20.6962 23 20 23Z" fill="white"/>
</svg>
