<svg width="16" height="20" viewBox="0 0 16 20" fill="none" xmlns="http://www.w3.org/2000/svg">
<g id="State=Checked">
<g id="Checkbox SVG">
<mask id="path-1-inside-1_421_10135" fill="white">
<path fill-rule="evenodd" clip-rule="evenodd" d="M4 2.5C1.79086 2.5 0 4.29086 0 6.5V14.5C0 16.7091 1.79086 18.5 4 18.5H12C14.2091 18.5 16 16.7091 16 14.5V6.5C16 4.29086 14.2091 2.5 12 2.5H4ZM7.70711 14.2071L13.7071 8.20711L12.2929 6.79289L7 12.0858L3.70711 8.79289L2.29289 10.2071L6.29289 14.2071L7 14.9142L7.70711 14.2071Z"/>
</mask>
<path fill-rule="evenodd" clip-rule="evenodd" d="M4 2.5C1.79086 2.5 0 4.29086 0 6.5V14.5C0 16.7091 1.79086 18.5 4 18.5H12C14.2091 18.5 16 16.7091 16 14.5V6.5C16 4.29086 14.2091 2.5 12 2.5H4ZM7.70711 14.2071L13.7071 8.20711L12.2929 6.79289L7 12.0858L3.70711 8.79289L2.29289 10.2071L6.29289 14.2071L7 14.9142L7.70711 14.2071Z" fill="#0C1200"/>
<path d="M13.7071 8.20711L14.7678 9.26777L15.8284 8.20711L14.7678 7.14645L13.7071 8.20711ZM12.2929 6.79289L13.3536 5.73223L12.2929 4.67157L11.2322 5.73223L12.2929 6.79289ZM7 12.0858L5.93934 13.1464L7 14.2071L8.06066 13.1464L7 12.0858ZM3.70711 8.79289L4.76777 7.73223L3.70711 6.67157L2.64645 7.73223L3.70711 8.79289ZM2.29289 10.2071L1.23223 9.14645L0.171573 10.2071L1.23223 11.2678L2.29289 10.2071ZM6.29289 14.2071L7.35355 13.1464L6.29289 14.2071ZM7 14.9142L5.93934 15.9749L7 17.0355L8.06066 15.9749L7 14.9142ZM1.5 6.5C1.5 5.11929 2.61929 4 4 4V1C0.962434 1 -1.5 3.46243 -1.5 6.5H1.5ZM1.5 14.5V6.5H-1.5V14.5H1.5ZM4 17C2.61929 17 1.5 15.8807 1.5 14.5H-1.5C-1.5 17.5376 0.962434 20 4 20V17ZM12 17H4V20H12V17ZM14.5 14.5C14.5 15.8807 13.3807 17 12 17V20C15.0376 20 17.5 17.5376 17.5 14.5H14.5ZM14.5 6.5V14.5H17.5V6.5H14.5ZM12 4C13.3807 4 14.5 5.11929 14.5 6.5H17.5C17.5 3.46243 15.0376 1 12 1V4ZM4 4H12V1H4V4ZM12.6464 7.14645L6.64645 13.1464L8.76777 15.2678L14.7678 9.26777L12.6464 7.14645ZM11.2322 7.85355L12.6464 9.26777L14.7678 7.14645L13.3536 5.73223L11.2322 7.85355ZM8.06066 13.1464L13.3536 7.85355L11.2322 5.73223L5.93934 11.0251L8.06066 13.1464ZM2.64645 9.85355L5.93934 13.1464L8.06066 11.0251L4.76777 7.73223L2.64645 9.85355ZM3.35355 11.2678L4.76777 9.85355L2.64645 7.73223L1.23223 9.14645L3.35355 11.2678ZM7.35355 13.1464L3.35355 9.14645L1.23223 11.2678L5.23223 15.2678L7.35355 13.1464ZM8.06066 13.8536L7.35355 13.1464L5.23223 15.2678L5.93934 15.9749L8.06066 13.8536ZM6.64645 13.1464L5.93934 13.8536L8.06066 15.9749L8.76777 15.2678L6.64645 13.1464Z" fill="#0C1200" mask="url(#path-1-inside-1_421_10135)"/>
</g>
</g>
</svg>
